<svg width="34" height="34" viewBox="0 0 34 34" fill="none" xmlns="http://www.w3.org/2000/svg">
<g id="whatsapp_white">
<path id="Vector" d="M28.6875 0H5.3125C2.38 0 0 2.38 0 5.3125V28.6875C0 31.62 2.38 34 5.3125 34H28.6875C31.62 34 34 31.62 34 28.6875V5.3125C34 2.38 31.62 0 28.6875 0ZM17 24.973C15.708 24.973 14.3905 24.5735 13.1495 23.953L13.005 23.885L12.852 23.9275L9.10349 24.9135L10.0725 21.3775L10.1235 21.2075L10.03 21.0545C9.3245 19.839 8.91649 18.428 8.91649 17.017C8.91649 12.58 12.5545 8.942 16.9915 8.942C19.1165 8.942 21.131 9.7495 22.644 11.2625C24.1655 12.784 25.0665 14.807 25.0665 16.915C25.0665 21.352 21.4285 24.99 16.9915 24.99L17 24.973Z" fill="white"/>
<path id="Vector_2" d="M22.0203 20.042C21.8285 20.5751 21.0807 21.0161 20.4825 21.1465C20.076 21.2309 19.5391 21.2999 17.7443 20.5559C15.4433 19.6049 13.963 17.2694 13.848 17.116C13.7368 16.9664 12.9199 15.8773 12.9199 14.7575C12.9199 13.6338 13.4875 13.0854 13.7176 12.8515C13.9093 12.6597 14.22 12.5715 14.5191 12.5715C14.615 12.5715 14.7032 12.5754 14.7799 12.5792C15.01 12.5907 15.125 12.6022 15.2784 12.9665C15.4663 13.4229 15.9265 14.5427 15.9802 14.6578C16.0377 14.7766 16.0914 14.93 16.0147 15.0834C15.9419 15.2407 15.8767 15.3097 15.7616 15.4401C15.6466 15.5743 15.5354 15.6779 15.4203 15.8197C15.3168 15.9425 15.1941 16.0767 15.3283 16.3068C15.4625 16.533 15.9227 17.2809 16.5976 17.883C17.472 18.6614 18.1777 18.9107 18.4308 19.0143C18.6225 19.0948 18.8449 19.0756 18.983 18.9299C19.1594 18.7381 19.3742 18.4275 19.5966 18.1169C19.75 17.8983 19.9494 17.8714 20.1565 17.9481C20.3674 18.021 21.4872 18.5732 21.7135 18.6883C21.9436 18.8033 22.097 18.857 22.1507 18.9567C22.2082 19.0526 22.2082 19.509 22.0203 20.042Z" fill="white"/>
</g>
</svg>
