<svg width="177" height="43" viewBox="0 0 177 43" fill="none" xmlns="http://www.w3.org/2000/svg">
<path d="M34.8589 0H7.25489C3.24813 0 0 3.24813 0 7.25489V34.8589C0 38.8657 3.24813 42.1138 7.25489 42.1138H34.8589C38.8657 42.1138 42.1138 38.8657 42.1138 34.8589V7.25489C42.1138 3.24813 38.8657 0 34.8589 0Z" fill="url(#paint0_linear_134_26)"/>
<path d="M18.9532 28.6262L14.8098 28.6133C11.234 28.6036 8.34167 31.4927 8.35134 35.0718L12.4947 35.0847C16.0705 35.0943 18.9628 32.2053 18.9532 28.6262Z" fill="white"/>
<path fill-rule="evenodd" clip-rule="evenodd" d="M15.2036 13.5135H25.9119C29.1846 13.5135 32.6605 11.395 33.7858 8.31896L34.3082 6.98083H15.8904C12.9659 6.98083 10.2058 9.29918 9.28043 11.5595L7.72949 15.6125C9.17725 14.642 12.0985 13.5167 15.2004 13.5167L15.2036 13.5135Z" fill="white"/>
<mask id="mask0_134_26" style="mask-type:luminance" maskUnits="userSpaceOnUse" x="7" y="6" width="28" height="10">
<path d="M15.2041 13.5135H25.9123C29.1851 13.5135 32.661 11.395 33.7863 8.31896L34.3087 6.98083H15.8909C12.9664 6.98083 10.2063 9.29918 9.28092 11.5595L7.72998 15.6125C9.17773 14.642 12.099 13.5167 15.2009 13.5167L15.2041 13.5135Z" fill="white"/>
</mask>
<g mask="url(#mask0_134_26)">
<path fill-rule="evenodd" clip-rule="evenodd" d="M4.6145 10.2762L7.20369 9.25403L13.3494 19.7623L10.7602 20.7877" fill="white"/>
<path fill-rule="evenodd" clip-rule="evenodd" d="M7.16504 9.27339L7.28757 9.2218L13.4333 19.7301L13.3075 19.7817" fill="white"/>
<path fill-rule="evenodd" clip-rule="evenodd" d="M7.24561 9.23782L7.36813 9.18945L13.5171 19.701L13.3881 19.7494" fill="white"/>
<path fill-rule="evenodd" clip-rule="evenodd" d="M7.32617 9.20559L7.45192 9.15723L13.5976 19.6688L13.4751 19.7139" fill="white"/>
<path fill-rule="evenodd" clip-rule="evenodd" d="M7.40991 9.17337L7.53244 9.125L13.6781 19.6333L13.5556 19.6817" fill="white"/>
<path fill-rule="evenodd" clip-rule="evenodd" d="M7.49072 9.14114L7.61325 9.09277L13.7622 19.6011L13.6396 19.6494" fill="white"/>
<path fill-rule="evenodd" clip-rule="evenodd" d="M7.57446 9.10884L7.69699 9.05725L13.8427 19.5688L13.7202 19.6204" fill="white"/>
<path fill-rule="evenodd" clip-rule="evenodd" d="M7.65503 9.07661L7.77756 9.02502L13.9265 19.5398L13.804 19.5849" fill="white"/>
<path fill-rule="evenodd" clip-rule="evenodd" d="M7.73901 9.04434L7.86154 8.99597L14.0072 19.5043L13.8847 19.5526" fill="white"/>
<path fill-rule="evenodd" clip-rule="evenodd" d="M7.81958 9.01211L7.94211 8.96375L14.091 19.4721L13.9653 19.5204" fill="white"/>
<path fill-rule="evenodd" clip-rule="evenodd" d="M7.90039 8.97671L8.02937 8.92834L14.1718 19.4399L14.0493 19.4882" fill="white"/>
<path fill-rule="evenodd" clip-rule="evenodd" d="M7.98413 8.94448L8.10988 8.89612L14.2524 19.4076L14.1298 19.456" fill="white"/>
<path fill-rule="evenodd" clip-rule="evenodd" d="M8.06787 8.91536L8.1904 8.86377L14.3361 19.3753L14.2136 19.4237" fill="white"/>
<path fill-rule="evenodd" clip-rule="evenodd" d="M8.15161 8.87998L8.27414 8.83484L14.4198 19.3431L14.2941 19.3915" fill="white"/>
<path fill-rule="evenodd" clip-rule="evenodd" d="M8.23218 8.84768L8.3547 8.79932L14.5036 19.3108L14.3747 19.3592" fill="white"/>
<path fill-rule="evenodd" clip-rule="evenodd" d="M8.31616 8.81546L8.43869 8.76709L14.5844 19.2786L14.4619 19.3238" fill="white"/>
<path fill-rule="evenodd" clip-rule="evenodd" d="M8.39697 8.78323L8.5195 8.73486L14.6652 19.2432L14.5427 19.2915" fill="white"/>
<path fill-rule="evenodd" clip-rule="evenodd" d="M8.47754 8.751L8.60329 8.70264L14.749 19.2109L14.6265 19.2625" fill="white"/>
<path fill-rule="evenodd" clip-rule="evenodd" d="M8.56128 8.71865L8.68381 8.67029L14.8295 19.1818L14.707 19.2302" fill="white"/>
<path fill-rule="evenodd" clip-rule="evenodd" d="M8.64185 8.68643L8.76437 8.63806L14.9133 19.1464L14.7908 19.1947" fill="white"/>
<path fill-rule="evenodd" clip-rule="evenodd" d="M8.72559 8.6542L8.84811 8.60583L14.9938 19.1141L14.8713 19.1625" fill="white"/>
<path fill-rule="evenodd" clip-rule="evenodd" d="M8.80615 8.61875L8.92868 8.57361L15.0776 19.0819L14.9519 19.1303" fill="white"/>
<path fill-rule="evenodd" clip-rule="evenodd" d="M8.88672 8.58657L9.01569 8.53821L15.1582 19.0497L15.0356 19.1013" fill="white"/>
<path fill-rule="evenodd" clip-rule="evenodd" d="M8.97363 8.55745L9.09616 8.50586L15.2386 19.0174L15.1161 19.0658" fill="white"/>
<path fill-rule="evenodd" clip-rule="evenodd" d="M9.05444 8.52529L9.17697 8.47693L15.3259 18.9852L15.2001 19.0336" fill="white"/>
<path fill-rule="evenodd" clip-rule="evenodd" d="M9.13843 8.48984L9.26095 8.4447L15.4067 18.953L15.2809 19.0014" fill="white"/>
<path fill-rule="evenodd" clip-rule="evenodd" d="M9.21899 8.45755L9.34152 8.40918L15.4904 18.9207L15.3679 18.9691" fill="white"/>
<path fill-rule="evenodd" clip-rule="evenodd" d="M9.30273 8.42532L9.42526 8.37695L15.571 18.8853L15.4484 18.9369" fill="white"/>
<path fill-rule="evenodd" clip-rule="evenodd" d="M9.3833 8.39632L9.50583 8.34473L15.6548 18.853L15.529 18.9046" fill="white"/>
<path fill-rule="evenodd" clip-rule="evenodd" d="M9.46411 8.36087L9.58986 8.3125L15.7356 18.824L15.613 18.8724" fill="white"/>
<path fill-rule="evenodd" clip-rule="evenodd" d="M9.54785 8.32852L9.67038 8.28015L15.8161 18.7917L15.6935 18.84" fill="white"/>
<path fill-rule="evenodd" clip-rule="evenodd" d="M9.62842 8.29629L9.75094 8.24792L15.8999 18.7562L15.7773 18.8046" fill="white"/>
<path fill-rule="evenodd" clip-rule="evenodd" d="M9.71216 8.26406L9.83468 8.2157L15.9804 18.724L15.8579 18.7724" fill="white"/>
<path fill-rule="evenodd" clip-rule="evenodd" d="M9.79272 8.23184L9.91525 8.18347L16.0642 18.6918L15.9416 18.7434" fill="white"/>
<path fill-rule="evenodd" clip-rule="evenodd" d="M9.87671 8.19954L10.0025 8.14795L16.1449 18.6627L16.0224 18.7111" fill="white"/>
<path fill-rule="evenodd" clip-rule="evenodd" d="M9.96069 8.16738L10.0832 8.11902L16.2289 18.6273L16.1032 18.6757" fill="white"/>
<path fill-rule="evenodd" clip-rule="evenodd" d="M10.0413 8.13516L10.167 8.08679L16.3127 18.5951L16.187 18.6435" fill="white"/>
<path fill-rule="evenodd" clip-rule="evenodd" d="M10.125 8.09971L10.2475 8.05457L16.3932 18.5629L16.2675 18.6112" fill="white"/>
<path fill-rule="evenodd" clip-rule="evenodd" d="M10.2056 8.06741L10.3281 8.01904L16.477 18.5306L16.3545 18.5789" fill="white"/>
<path fill-rule="evenodd" clip-rule="evenodd" d="M10.2893 8.03841L10.4118 7.98682L16.5575 18.4983L16.435 18.5467" fill="white"/>
<path fill-rule="evenodd" clip-rule="evenodd" d="M10.3699 8.00613L10.4924 7.95776L16.6413 18.4661L16.5156 18.5144" fill="white"/>
<path fill-rule="evenodd" clip-rule="evenodd" d="M10.4541 7.97068L10.5766 7.92554L16.7223 18.4338L16.5998 18.4822" fill="white"/>
<path fill-rule="evenodd" clip-rule="evenodd" d="M10.5347 7.93838L10.6572 7.89001L16.8029 18.4015L16.6804 18.4499" fill="white"/>
<path fill-rule="evenodd" clip-rule="evenodd" d="M10.6152 7.90615L10.741 7.85779L16.8867 18.3661L16.7642 18.4145" fill="white"/>
<path fill-rule="evenodd" clip-rule="evenodd" d="M10.699 7.87393L10.8215 7.82556L16.9672 18.3339L16.8447 18.3855" fill="white"/>
<path fill-rule="evenodd" clip-rule="evenodd" d="M10.7795 7.8417L10.9021 7.79333L17.051 18.3049L16.9285 18.3532" fill="white"/>
<path fill-rule="evenodd" clip-rule="evenodd" d="M10.8633 7.80947L10.989 7.76111L17.1315 18.2726L17.009 18.321" fill="white"/>
<path fill-rule="evenodd" clip-rule="evenodd" d="M10.947 7.77725L11.0695 7.72888L17.2152 18.2372L17.0895 18.2856" fill="white"/>
<path fill-rule="evenodd" clip-rule="evenodd" d="M11.0312 7.7449L11.1538 7.69653L17.2995 18.2048L17.1737 18.2532" fill="white"/>
<path fill-rule="evenodd" clip-rule="evenodd" d="M11.1118 7.71272L11.2343 7.66113L17.38 18.1727L17.2543 18.2243" fill="white"/>
<path fill-rule="evenodd" clip-rule="evenodd" d="M11.1924 7.6805L11.3149 7.62891L17.4638 18.1437L17.3413 18.192" fill="white"/>
<path fill-rule="evenodd" clip-rule="evenodd" d="M11.2761 7.64822L11.3986 7.59985L17.5443 18.1082L17.4218 18.1565" fill="white"/>
<path fill-rule="evenodd" clip-rule="evenodd" d="M11.3567 7.61599L11.4792 7.56763L17.6281 18.0759L17.5056 18.1243" fill="white"/>
<path fill-rule="evenodd" clip-rule="evenodd" d="M11.4404 7.58047L11.563 7.5321L17.7087 18.0436L17.5861 18.092" fill="white"/>
<path fill-rule="evenodd" clip-rule="evenodd" d="M11.5212 7.54824L11.6438 7.49988L17.7927 18.0114L17.6669 18.0598" fill="white"/>
<path fill-rule="evenodd" clip-rule="evenodd" d="M11.6018 7.51924L11.7276 7.46765L17.8733 17.9792L17.7507 18.0275" fill="white"/>
<path fill-rule="evenodd" clip-rule="evenodd" d="M11.6855 7.48696L11.8081 7.4386L17.9538 17.9469L17.8312 17.9953" fill="white"/>
<path fill-rule="evenodd" clip-rule="evenodd" d="M11.7661 7.45156L11.8886 7.4032L18.0376 17.9147L17.915 17.9631" fill="white"/>
<path fill-rule="evenodd" clip-rule="evenodd" d="M11.8501 7.41922L11.9758 7.37085L18.1183 17.8824L17.9958 17.9275" fill="white"/>
<path fill-rule="evenodd" clip-rule="evenodd" d="M11.9338 7.38699L12.0564 7.33862L18.2021 17.8469L18.0795 17.8953" fill="white"/>
<path fill-rule="evenodd" clip-rule="evenodd" d="M12.0178 7.35476L12.1403 7.3064L18.286 17.8147L18.1603 17.8663" fill="white"/>
<path fill-rule="evenodd" clip-rule="evenodd" d="M12.0984 7.32254L12.2209 7.27417L18.3698 17.7857L18.2409 17.8341" fill="white"/>
<path fill-rule="evenodd" clip-rule="evenodd" d="M12.179 7.29031L12.3047 7.24194L18.4504 17.7535L18.3279 17.7986" fill="white"/>
<path fill-rule="evenodd" clip-rule="evenodd" d="M12.2627 7.25808L12.3852 7.20972L18.5309 17.718L18.4084 17.7664" fill="white"/>
<path fill-rule="evenodd" clip-rule="evenodd" d="M12.3433 7.22586L12.4658 7.17749L18.6147 17.6858L18.4922 17.7342" fill="white"/>
<path fill-rule="evenodd" clip-rule="evenodd" d="M12.4272 7.19033L12.5498 7.14197L18.6955 17.6535L18.5729 17.7051" fill="white"/>
<path fill-rule="evenodd" clip-rule="evenodd" d="M12.5081 7.16133L12.6306 7.10974L18.7795 17.6213L18.657 17.6696" fill="white"/>
<path fill-rule="evenodd" clip-rule="evenodd" d="M12.5918 7.12905L12.7143 7.08069L18.86 17.589L18.7375 17.6374" fill="white"/>
<path fill-rule="evenodd" clip-rule="evenodd" d="M12.6724 7.09683L12.7949 7.04846L18.9406 17.5568L18.8181 17.6051" fill="white"/>
<path fill-rule="evenodd" clip-rule="evenodd" d="M12.7529 7.06131L12.8819 7.01294L19.0244 17.5245L18.9019 17.5728" fill="white"/>
<path fill-rule="evenodd" clip-rule="evenodd" d="M12.8367 7.02908L12.9624 6.98071L19.1049 17.4922L18.9824 17.5406" fill="white"/>
<path fill-rule="evenodd" clip-rule="evenodd" d="M12.9204 7.00008L13.0429 6.94849L19.1886 17.4568L19.0661 17.5084" fill="white"/>
<path fill-rule="evenodd" clip-rule="evenodd" d="M13.0042 6.96785L13.1267 6.91626L19.2724 17.4278L19.1466 17.4762" fill="white"/>
<path fill-rule="evenodd" clip-rule="evenodd" d="M13.085 6.9324L13.2075 6.88403L19.3564 17.3956L19.2274 17.4439" fill="white"/>
<path fill-rule="evenodd" clip-rule="evenodd" d="M13.1689 6.90017L13.2915 6.85181L19.4372 17.3633L19.3146 17.4085" fill="white"/>
<path fill-rule="evenodd" clip-rule="evenodd" d="M13.2495 6.86795L13.372 6.81958L19.5177 17.3279L19.3952 17.3763" fill="white"/>
<path fill-rule="evenodd" clip-rule="evenodd" d="M13.3301 6.83572L13.4558 6.78735L19.6015 17.2957L19.479 17.3473" fill="white"/>
<path fill-rule="evenodd" clip-rule="evenodd" d="M13.4138 6.80342L13.5363 6.75183L19.682 17.2666L19.5595 17.315" fill="white"/>
<path fill-rule="evenodd" clip-rule="evenodd" d="M13.4944 6.77114L13.6169 6.72278L19.7658 17.2343L19.6433 17.2795" fill="white"/>
<path fill-rule="evenodd" clip-rule="evenodd" d="M13.5784 6.73892L13.7009 6.69055L19.8466 17.1989L19.7241 17.2472" fill="white"/>
<path fill-rule="evenodd" clip-rule="evenodd" d="M13.6589 6.70669L13.7815 6.65833L19.9304 17.1666L19.8046 17.215" fill="white"/>
<path fill-rule="evenodd" clip-rule="evenodd" d="M13.7395 6.67117L13.8685 6.6228L20.011 17.1343L19.8884 17.1827" fill="white"/>
<path fill-rule="evenodd" clip-rule="evenodd" d="M13.8267 6.64217L13.9492 6.59058L20.0917 17.1021L19.9691 17.1505" fill="white"/>
<path fill-rule="evenodd" clip-rule="evenodd" d="M13.9072 6.61001L14.0298 6.56165L20.1787 17.07L20.0529 17.1183" fill="white"/>
<path fill-rule="evenodd" clip-rule="evenodd" d="M13.991 6.57766L14.1135 6.5293L20.2592 17.0376L20.1334 17.086" fill="white"/>
<path fill-rule="evenodd" clip-rule="evenodd" d="M14.0718 6.54226L14.1943 6.4939L20.3432 17.0054L20.2207 17.0538" fill="white"/>
<path fill-rule="evenodd" clip-rule="evenodd" d="M14.1555 6.51004L14.278 6.46167L20.4237 16.9732L20.3012 17.0183" fill="white"/>
<path fill-rule="evenodd" clip-rule="evenodd" d="M14.2361 6.47781L14.3586 6.42944L20.5075 16.9377L20.3818 16.9893" fill="white"/>
<path fill-rule="evenodd" clip-rule="evenodd" d="M14.3167 6.44558L14.4424 6.39722L20.5881 16.9087L20.4656 16.9571" fill="white"/>
<path fill-rule="evenodd" clip-rule="evenodd" d="M14.4004 6.41323L14.5229 6.36487L20.6686 16.8764L20.5461 16.9248" fill="white"/>
<path fill-rule="evenodd" clip-rule="evenodd" d="M14.481 6.38101L14.6035 6.33264L20.7524 16.8442L20.6299 16.8893" fill="white"/>
<path fill-rule="evenodd" clip-rule="evenodd" d="M14.5652 6.34878L14.6877 6.30042L20.8334 16.8087L20.7109 16.8571" fill="white"/>
<path fill-rule="evenodd" clip-rule="evenodd" d="M14.6458 6.31655L14.7683 6.26819L20.9172 16.7765L20.7947 16.8281" fill="white"/>
<path fill-rule="evenodd" clip-rule="evenodd" d="M14.7295 6.28426L14.8552 6.23267L20.9977 16.7442L20.8752 16.7958" fill="white"/>
<path fill-rule="evenodd" clip-rule="evenodd" d="M14.8132 6.25198L14.9358 6.20361L21.0815 16.7119L20.9557 16.7603" fill="white"/>
<path fill-rule="evenodd" clip-rule="evenodd" d="M14.8938 6.21975L15.0196 6.17139L21.1652 16.6797L21.0395 16.7281" fill="white"/>
<path fill-rule="evenodd" clip-rule="evenodd" d="M14.9775 6.1843L15.1001 6.13916L21.2458 16.6475L21.12 16.6958" fill="white"/>
<path fill-rule="evenodd" clip-rule="evenodd" d="M15.0581 6.15213L15.1806 6.10376L21.3296 16.6153L21.207 16.6637" fill="white"/>
<path fill-rule="evenodd" clip-rule="evenodd" d="M15.1423 6.12312L15.2649 6.07153L21.4106 16.5831L21.288 16.6314" fill="white"/>
<path fill-rule="evenodd" clip-rule="evenodd" d="M15.2229 6.09085L15.3454 6.04248L21.4944 16.5508L21.3686 16.5992" fill="white"/>
<path fill-rule="evenodd" clip-rule="evenodd" d="M15.3066 6.0554L15.4292 6.01025L21.5749 16.5186L21.4523 16.5669" fill="white"/>
<path fill-rule="evenodd" clip-rule="evenodd" d="M15.3872 6.0231L15.5097 5.97473L21.6554 16.4863L21.5329 16.5346" fill="white"/>
<path fill-rule="evenodd" clip-rule="evenodd" d="M15.4678 5.99087L15.5935 5.9425L21.7392 16.4508L21.6167 16.4992" fill="white"/>
<path fill-rule="evenodd" clip-rule="evenodd" d="M15.5515 5.95864L15.674 5.91028L21.8197 16.4186L21.6972 16.4702" fill="white"/>
<path fill-rule="evenodd" clip-rule="evenodd" d="M15.6323 5.92642L15.7549 5.87805L21.9038 16.3896L21.7812 16.4379" fill="white"/>
<path fill-rule="evenodd" clip-rule="evenodd" d="M15.7161 5.89419L15.8418 5.84583L21.9843 16.3574L21.8618 16.4057" fill="white"/>
<path fill-rule="evenodd" clip-rule="evenodd" d="M15.8 5.86184L15.9226 5.81348L22.0683 16.3218L21.9425 16.3701" fill="white"/>
<path fill-rule="evenodd" clip-rule="evenodd" d="M15.8838 5.82962L16.0063 5.78125L22.152 16.2896L22.0263 16.3379" fill="white"/>
<path fill-rule="evenodd" clip-rule="evenodd" d="M15.9644 5.79416L16.0869 5.74902L22.2326 16.2573L22.1068 16.3089" fill="white"/>
<path fill-rule="evenodd" clip-rule="evenodd" d="M16.0452 5.76521L16.1677 5.71362L22.3166 16.2252L22.1941 16.2767" fill="white"/>
<path fill-rule="evenodd" clip-rule="evenodd" d="M16.1289 5.73294L16.2514 5.68457L22.3971 16.1929L22.2746 16.2412" fill="white"/>
<path fill-rule="evenodd" clip-rule="evenodd" d="M16.2095 5.70071L16.332 5.65234L22.4809 16.1606L22.3584 16.209" fill="white"/>
<path fill-rule="evenodd" clip-rule="evenodd" d="M16.2932 5.66526L16.4157 5.62012L22.5614 16.1284L22.4389 16.1768" fill="white"/>
<path fill-rule="evenodd" clip-rule="evenodd" d="M16.3738 5.63296L16.4963 5.58459L22.6452 16.0961L22.5195 16.1445" fill="white"/>
<path fill-rule="evenodd" clip-rule="evenodd" d="M16.4543 5.60396L16.5801 5.55237L22.7258 16.0607L22.6033 16.1123" fill="white"/>
<path fill-rule="evenodd" clip-rule="evenodd" d="M16.5386 5.57173L16.6611 5.52014L22.8068 16.0317L22.6843 16.08" fill="white"/>
<path fill-rule="evenodd" clip-rule="evenodd" d="M16.6191 5.53623L16.7417 5.49109L22.8906 15.9994L22.7681 16.0478" fill="white"/>
<path fill-rule="evenodd" clip-rule="evenodd" d="M16.7029 5.50405L16.8286 5.45569L22.9711 15.9672L22.8486 16.0156" fill="white"/>
<path fill-rule="evenodd" clip-rule="evenodd" d="M16.7866 5.47171L16.9091 5.42334L23.0548 15.9316L22.9323 15.98" fill="white"/>
<path fill-rule="evenodd" clip-rule="evenodd" d="M16.8704 5.43948L16.9929 5.39111L23.1386 15.8994L23.0128 15.951" fill="white"/>
<path fill-rule="evenodd" clip-rule="evenodd" d="M16.9509 5.40725L17.0735 5.35889L23.2224 15.8704L23.0934 15.9188" fill="white"/>
<path fill-rule="evenodd" clip-rule="evenodd" d="M17.0315 5.37503L17.1572 5.32666L23.3029 15.8382L23.1804 15.8866" fill="white"/>
<path fill-rule="evenodd" clip-rule="evenodd" d="M17.1152 5.3428L17.2378 5.29443L23.3835 15.8027L23.2609 15.8511" fill="white"/>
<path fill-rule="evenodd" clip-rule="evenodd" d="M17.196 5.31057L17.3186 5.26221L23.4675 15.7705L23.345 15.8189" fill="white"/>
<path fill-rule="evenodd" clip-rule="evenodd" d="M17.28 5.27505L17.4026 5.22668L23.5483 15.7382L23.4257 15.7866" fill="white"/>
<path fill-rule="evenodd" clip-rule="evenodd" d="M17.3606 5.24605L17.4831 5.19446L23.632 15.706L23.5095 15.7576" fill="white"/>
<path fill-rule="evenodd" clip-rule="evenodd" d="M17.4443 5.21377L17.5669 5.16541L23.7126 15.6737L23.59 15.7221" fill="white"/>
<path fill-rule="evenodd" clip-rule="evenodd" d="M17.5249 5.18154L17.6474 5.13318L23.7931 15.6415L23.6706 15.6899" fill="white"/>
<path fill-rule="evenodd" clip-rule="evenodd" d="M17.6057 5.14614L17.7347 5.09778L23.8772 15.6093L23.7546 15.6577" fill="white"/>
<path fill-rule="evenodd" clip-rule="evenodd" d="M17.6895 5.1138L17.8152 5.06543L23.9577 15.577L23.8352 15.6253" fill="white"/>
<path fill-rule="evenodd" clip-rule="evenodd" d="M17.7732 5.08157L17.8957 5.0332L24.0414 15.5415L23.9189 15.5931" fill="white"/>
<path fill-rule="evenodd" clip-rule="evenodd" d="M17.8572 5.05257L17.9797 5.00098L24.1254 15.5125L23.9997 15.5609" fill="white"/>
<path fill-rule="evenodd" clip-rule="evenodd" d="M17.9377 5.01712L18.0603 4.96875L24.2092 15.4803L24.0802 15.5286" fill="white"/>
<path fill-rule="evenodd" clip-rule="evenodd" d="M18.0215 4.98489L18.144 4.93652L24.2897 15.4481L24.1672 15.4932" fill="white"/>
<path fill-rule="evenodd" clip-rule="evenodd" d="M18.1023 4.95266L18.2248 4.9043L24.3705 15.4126L24.248 15.461" fill="white"/>
<path fill-rule="evenodd" clip-rule="evenodd" d="M18.1829 4.92031L18.3086 4.87195L24.4543 15.3803L24.3318 15.4318" fill="white"/>
<path fill-rule="evenodd" clip-rule="evenodd" d="M18.2666 4.88814L18.3891 4.83655L24.5348 15.3481L24.4123 15.3997" fill="white"/>
<path fill-rule="evenodd" clip-rule="evenodd" d="M18.3472 4.85586L18.4697 4.8075L24.6186 15.319L24.4961 15.3642" fill="white"/>
<path fill-rule="evenodd" clip-rule="evenodd" d="M18.4309 4.82363L18.5534 4.77527L24.6991 15.2836L24.5766 15.3319" fill="white"/>
<path fill-rule="evenodd" clip-rule="evenodd" d="M18.5115 4.79141L18.634 4.74304L24.7829 15.2513L24.6572 15.2997" fill="white"/>
<path fill-rule="evenodd" clip-rule="evenodd" d="M18.592 4.75601L18.721 4.70764L24.8635 15.2192L24.741 15.2675" fill="white"/>
<path fill-rule="evenodd" clip-rule="evenodd" d="M18.6794 4.72688L18.802 4.67529L24.9444 15.1868L24.8219 15.2352" fill="white"/>
<path fill-rule="evenodd" clip-rule="evenodd" d="M18.76 4.69473L18.8825 4.64636L25.0315 15.1547L24.9057 15.203" fill="white"/>
<path fill-rule="evenodd" clip-rule="evenodd" d="M18.8438 4.66238L18.9663 4.61401L25.112 15.1223L24.9862 15.1707" fill="white"/>
<path fill-rule="evenodd" clip-rule="evenodd" d="M18.9243 4.62698L19.0468 4.57861L25.1958 15.0901L25.0732 15.1385" fill="white"/>
<path fill-rule="evenodd" clip-rule="evenodd" d="M19.0081 4.59475L19.1306 4.54639L25.2763 15.0579L25.1538 15.1031" fill="white"/>
<path fill-rule="evenodd" clip-rule="evenodd" d="M19.0886 4.5624L19.2112 4.51404L25.3601 15.0223L25.2343 15.0739" fill="white"/>
<path fill-rule="evenodd" clip-rule="evenodd" d="M19.1694 4.5334L19.2952 4.48181L25.4409 14.9933L25.3184 15.0417" fill="white"/>
<path fill-rule="evenodd" clip-rule="evenodd" d="M19.2534 4.49795L19.3759 4.44958L25.5216 14.9611L25.3991 15.0095" fill="white"/>
<path fill-rule="evenodd" clip-rule="evenodd" d="M19.334 4.46572L19.4565 4.41736L25.6054 14.9289L25.4829 14.974" fill="white"/>
<path fill-rule="evenodd" clip-rule="evenodd" d="M19.4177 4.4335L19.5403 4.38513L25.686 14.8934L25.5634 14.9418" fill="white"/>
<path fill-rule="evenodd" clip-rule="evenodd" d="M19.4983 4.40127L19.6208 4.35291L25.7697 14.8612L25.6472 14.9128" fill="white"/>
<path fill-rule="evenodd" clip-rule="evenodd" d="M19.582 4.36897L19.7078 4.31738L25.8503 14.8289L25.7277 14.8805" fill="white"/>
<path fill-rule="evenodd" clip-rule="evenodd" d="M19.6658 4.33682L19.7883 4.28845L25.934 14.8L25.8082 14.8451" fill="white"/>
<path fill-rule="evenodd" clip-rule="evenodd" d="M19.7466 4.30447L19.8723 4.2561L26.018 14.7644L25.8923 14.8128" fill="white"/>
<path fill-rule="evenodd" clip-rule="evenodd" d="M19.8306 4.27224L19.9531 4.22388L26.0988 14.7322L25.973 14.7805" fill="white"/>
<path fill-rule="evenodd" clip-rule="evenodd" d="M19.9111 4.23684L20.0337 4.18848L26.1826 14.7L26.0601 14.7484" fill="white"/>
<path fill-rule="evenodd" clip-rule="evenodd" d="M19.9949 4.20772L20.1174 4.15613L26.2631 14.6677L26.1406 14.716" fill="white"/>
<path fill-rule="evenodd" clip-rule="evenodd" d="M20.0754 4.17549L20.198 4.1239L26.3469 14.6354L26.2211 14.6838" fill="white"/>
<path fill-rule="evenodd" clip-rule="evenodd" d="M20.1594 4.14334L20.282 4.09497L26.4276 14.6033L26.3051 14.6516" fill="white"/>
<path fill-rule="evenodd" clip-rule="evenodd" d="M20.24 4.10781L20.3625 4.05945L26.5082 14.571L26.3857 14.6193" fill="white"/>
<path fill-rule="evenodd" clip-rule="evenodd" d="M20.3206 4.07559L20.4463 4.02722L26.592 14.5388L26.4695 14.5839" fill="white"/>
<path fill-rule="evenodd" clip-rule="evenodd" d="M20.4043 4.04336L20.5268 3.995L26.6725 14.5033L26.55 14.5549" fill="white"/>
<path fill-rule="evenodd" clip-rule="evenodd" d="M20.4849 4.01113L20.6074 3.96277L26.7563 14.4743L26.6338 14.5227" fill="white"/>
<path fill-rule="evenodd" clip-rule="evenodd" d="M20.5688 3.97891L20.6946 3.93054L26.8371 14.4421L26.7145 14.4904" fill="white"/>
<path fill-rule="evenodd" clip-rule="evenodd" d="M20.6528 3.94668L20.7754 3.89832L26.9211 14.4098L26.7953 14.455" fill="white"/>
<path fill-rule="evenodd" clip-rule="evenodd" d="M20.7366 3.91433L20.8591 3.86597L27.0048 14.3743L26.879 14.4226" fill="white"/>
<path fill-rule="evenodd" clip-rule="evenodd" d="M20.8171 3.87888L20.9397 3.83374L27.0854 14.342L26.9596 14.3904" fill="white"/>
<path fill-rule="evenodd" clip-rule="evenodd" d="M20.8977 3.84993L21.0202 3.79834L27.1692 14.3099L27.0466 14.3615" fill="white"/>
<path fill-rule="evenodd" clip-rule="evenodd" d="M20.9814 3.81765L21.104 3.76929L27.2497 14.2776L27.1271 14.326" fill="white"/>
<path fill-rule="evenodd" clip-rule="evenodd" d="M21.062 3.78543L21.1845 3.73706L27.3335 14.2454L27.2109 14.2937" fill="white"/>
<path fill-rule="evenodd" clip-rule="evenodd" d="M21.1458 3.74985L21.2683 3.70471L27.414 14.213L27.2915 14.2614" fill="white"/>
<path fill-rule="evenodd" clip-rule="evenodd" d="M21.2266 3.71768L21.3491 3.66931L27.498 14.1808L27.3723 14.2292" fill="white"/>
<path fill-rule="evenodd" clip-rule="evenodd" d="M21.3071 3.68545L21.4329 3.63708L27.5786 14.1454L27.4561 14.197" fill="white"/>
<path fill-rule="evenodd" clip-rule="evenodd" d="M21.3911 3.65645L21.5136 3.60486L27.6593 14.1164L27.5368 14.1648" fill="white"/>
<path fill-rule="evenodd" clip-rule="evenodd" d="M21.4717 3.62095L21.5942 3.57581L27.7431 14.0841L27.6206 14.1325" fill="white"/>
<path fill-rule="evenodd" clip-rule="evenodd" d="M21.5554 3.58877L21.6812 3.54041L27.8236 14.0519L27.7011 14.1003" fill="white"/>
<path fill-rule="evenodd" clip-rule="evenodd" d="M21.6392 3.55642L21.7617 3.50806L27.9074 14.0164L27.7849 14.0647" fill="white"/>
<path fill-rule="evenodd" clip-rule="evenodd" d="M21.7229 3.5242L21.8454 3.47583L27.9911 13.9841L27.8654 14.0357" fill="white"/>
<path fill-rule="evenodd" clip-rule="evenodd" d="M21.8037 3.49197L21.9262 3.4436L28.0752 13.9519L27.9462 14.0035" fill="white"/>
<path fill-rule="evenodd" clip-rule="evenodd" d="M21.8843 3.45974L22.01 3.41138L28.1557 13.9229L28.0332 13.9713" fill="white"/>
<path fill-rule="evenodd" clip-rule="evenodd" d="M21.9683 3.42752L22.0908 3.37915L28.2365 13.8875L28.114 13.9358" fill="white"/>
<path fill-rule="evenodd" clip-rule="evenodd" d="M22.0488 3.39517L22.1714 3.3468L28.3203 13.8551L28.1978 13.9035" fill="white"/>
<path fill-rule="evenodd" clip-rule="evenodd" d="M22.1326 3.35972L22.2551 3.31458L28.4008 13.8229L28.2783 13.8712" fill="white"/>
<path fill-rule="evenodd" clip-rule="evenodd" d="M22.2134 3.33077L22.3359 3.27917L28.4848 13.7907L28.3623 13.8423" fill="white"/>
<path fill-rule="evenodd" clip-rule="evenodd" d="M22.2971 3.29849L22.4196 3.25012L28.5653 13.7584L28.4428 13.8068" fill="white"/>
<path fill-rule="evenodd" clip-rule="evenodd" d="M22.3777 3.26626L22.5002 3.2179L28.6459 13.7262L28.5234 13.7746" fill="white"/>
<path fill-rule="evenodd" clip-rule="evenodd" d="M22.4583 3.23081L22.5872 3.18567L28.7297 13.694L28.6072 13.7423" fill="white"/>
<path fill-rule="evenodd" clip-rule="evenodd" d="M22.542 3.19851L22.6677 3.15015L28.8102 13.6617L28.6877 13.71" fill="white"/>
<path fill-rule="evenodd" clip-rule="evenodd" d="M22.626 3.16629L22.7485 3.11792L28.8974 13.6262L28.7717 13.6778" fill="white"/>
<path fill-rule="evenodd" clip-rule="evenodd" d="M22.71 3.13728L22.8325 3.08569L28.9782 13.5972L28.8524 13.6456" fill="white"/>
<path fill-rule="evenodd" clip-rule="evenodd" d="M22.7905 3.10178L22.9131 3.05664L29.062 13.5649L28.933 13.6133" fill="white"/>
<path fill-rule="evenodd" clip-rule="evenodd" d="M22.8743 3.06961L22.9968 3.02124L29.1425 13.5328L29.02 13.5811" fill="white"/>
<path fill-rule="evenodd" clip-rule="evenodd" d="M22.9548 3.03738L23.0774 2.98901L29.2231 13.4973L29.1005 13.5457" fill="white"/>
<path fill-rule="evenodd" clip-rule="evenodd" d="M23.0354 3.00503L23.1612 2.95667L29.3068 13.465L29.1843 13.5166" fill="white"/>
<path fill-rule="evenodd" clip-rule="evenodd" d="M23.1191 2.9728L23.2417 2.92444L29.3874 13.4327L29.2648 13.4843" fill="white"/>
<path fill-rule="evenodd" clip-rule="evenodd" d="M23.1997 2.94058L23.3222 2.89221L29.4712 13.4037L29.3486 13.4521" fill="white"/>
<path fill-rule="evenodd" clip-rule="evenodd" d="M23.2839 2.90835L23.4065 2.85999L29.5522 13.3683L29.4296 13.4167" fill="white"/>
<path fill-rule="evenodd" clip-rule="evenodd" d="M23.3645 2.87612L23.487 2.82776L29.636 13.3361L29.5102 13.3844" fill="white"/>
<path fill-rule="evenodd" clip-rule="evenodd" d="M23.4451 2.8406L23.574 2.79224L29.7165 13.3038L29.594 13.3521" fill="white"/>
<path fill-rule="evenodd" clip-rule="evenodd" d="M23.532 2.8116L23.6545 2.76001L29.797 13.2715L29.6745 13.3231" fill="white"/>
<path fill-rule="evenodd" clip-rule="evenodd" d="M23.6125 2.77937L23.7351 2.72778L29.884 13.2393L29.7582 13.2877" fill="white"/>
<path fill-rule="evenodd" clip-rule="evenodd" d="M23.6963 2.7471L23.8188 2.69873L29.9645 13.207L29.8388 13.2554" fill="white"/>
<path fill-rule="evenodd" clip-rule="evenodd" d="M23.7771 2.7117L23.8996 2.66333L30.0486 13.1749L29.926 13.2232" fill="white"/>
<path fill-rule="evenodd" clip-rule="evenodd" d="M23.8611 2.67947L23.9836 2.6311L30.1293 13.1426L30.0068 13.191" fill="white"/>
<path fill-rule="evenodd" clip-rule="evenodd" d="M23.9417 2.64724L24.0642 2.59888L30.2131 13.1072L30.0873 13.1588" fill="white"/>
<path fill-rule="evenodd" clip-rule="evenodd" d="M24.0222 2.61812L24.148 2.56653L30.2937 13.0781L30.1711 13.1264" fill="white"/>
<path fill-rule="evenodd" clip-rule="evenodd" d="M24.106 2.58267L24.2285 2.5343L30.3742 13.0458L30.2517 13.0942" fill="white"/>
<path fill-rule="evenodd" clip-rule="evenodd" d="M24.1868 2.55044L24.3093 2.50208L30.4582 13.0136L30.3357 13.062" fill="white"/>
<path fill-rule="evenodd" clip-rule="evenodd" d="M24.2705 2.51821L24.393 2.46985L30.5387 12.9782L30.4162 13.0265" fill="white"/>
<path fill-rule="evenodd" clip-rule="evenodd" d="M24.3511 2.48599L24.4736 2.43762L30.6225 12.9459L30.5 12.9943" fill="white"/>
<path fill-rule="evenodd" clip-rule="evenodd" d="M24.4348 2.45369L24.5606 2.4021L30.703 12.9136L30.5805 12.9652" fill="white"/>
<path fill-rule="evenodd" clip-rule="evenodd" d="M24.5188 2.42141L24.6413 2.37305L30.787 12.8846L30.6613 12.9297" fill="white"/>
<path fill-rule="evenodd" clip-rule="evenodd" d="M24.5994 2.38919L24.7251 2.34082L30.8708 12.8491L30.7451 12.8975" fill="white"/>
<path fill-rule="evenodd" clip-rule="evenodd" d="M24.6831 2.35696L24.8056 2.30859L30.9513 12.8169L30.8256 12.8653" fill="white"/>
<path fill-rule="evenodd" clip-rule="evenodd" d="M24.7639 2.32156L24.8864 2.27319L31.0354 12.7847L30.9128 12.8331" fill="white"/>
<path fill-rule="evenodd" clip-rule="evenodd" d="M24.8477 2.28933L24.9702 2.24097L31.1159 12.7525L30.9934 12.8009" fill="white"/>
<path fill-rule="evenodd" clip-rule="evenodd" d="M24.9282 2.26033L25.0508 2.20874L31.1997 12.7203L31.0739 12.7686" fill="white"/>
<path fill-rule="evenodd" clip-rule="evenodd" d="M25.012 2.22805L25.1345 2.17969L31.2802 12.688L31.1577 12.7364" fill="white"/>
<path fill-rule="evenodd" clip-rule="evenodd" d="M25.0925 2.19253L25.2151 2.14417L31.3608 12.6557L31.2382 12.7041" fill="white"/>
<path fill-rule="evenodd" clip-rule="evenodd" d="M25.1731 2.1603L25.2988 2.11194L31.4445 12.6235L31.322 12.6686" fill="white"/>
<path fill-rule="evenodd" clip-rule="evenodd" d="M25.2568 2.12808L25.3794 2.07971L31.5251 12.588L31.4025 12.6396" fill="white"/>
<path fill-rule="evenodd" clip-rule="evenodd" d="M25.3376 2.09908L25.4602 2.04749L31.6091 12.5558L31.4866 12.6074" fill="white"/>
<path fill-rule="evenodd" clip-rule="evenodd" d="M25.4216 2.0635L25.5474 2.01514L31.6899 12.5267L31.5673 12.575" fill="white"/>
<path fill-rule="evenodd" clip-rule="evenodd" d="M25.5054 2.03128L25.6279 1.98291L31.7736 12.4944L31.6478 12.5396" fill="white"/>
<path fill-rule="evenodd" clip-rule="evenodd" d="M25.5891 1.99905L25.7116 1.95068L31.8573 12.459L31.7316 12.5074" fill="white"/>
<path fill-rule="evenodd" clip-rule="evenodd" d="M25.6697 1.96682L25.7922 1.91846L31.9379 12.4268L31.8122 12.4751" fill="white"/>
<path fill-rule="evenodd" clip-rule="evenodd" d="M25.7502 1.93465L25.8728 1.88306L32.0217 12.3946L31.8992 12.4462" fill="white"/>
<path fill-rule="evenodd" clip-rule="evenodd" d="M25.8342 1.90237L25.9568 1.854L32.1025 12.3655L31.9799 12.4107" fill="white"/>
<path fill-rule="evenodd" clip-rule="evenodd" d="M25.9148 1.87014L26.0373 1.82178L32.1862 12.3301L32.0637 12.3784" fill="white"/>
<path fill-rule="evenodd" clip-rule="evenodd" d="M25.9988 1.83792L26.1213 1.78955L32.267 12.2979L32.1445 12.3462" fill="white"/>
<path fill-rule="evenodd" clip-rule="evenodd" d="M26.0793 1.80239L26.2019 1.75403L32.3508 12.2656L32.225 12.3139" fill="white"/>
<path fill-rule="evenodd" clip-rule="evenodd" d="M26.1599 1.77017L26.2857 1.7218L32.4314 12.2333L32.3088 12.2817" fill="white"/>
<path fill-rule="evenodd" clip-rule="evenodd" d="M26.2439 1.74117L26.3664 1.68958L32.5121 12.2011L32.3896 12.2495" fill="white"/>
<path fill-rule="evenodd" clip-rule="evenodd" d="M26.3245 1.70889L26.447 1.66052L32.5959 12.1688L32.4734 12.2172" fill="white"/>
<path fill-rule="evenodd" clip-rule="evenodd" d="M26.4082 1.67337L26.534 1.625L32.6764 12.1365L32.5539 12.1849" fill="white"/>
<path fill-rule="evenodd" clip-rule="evenodd" d="M26.4919 1.64114L26.6145 1.59277L32.7602 12.1043L32.6376 12.1494" fill="white"/>
<path fill-rule="evenodd" clip-rule="evenodd" d="M26.5759 1.60891L26.6985 1.56055L32.8442 12.0689L32.7184 12.1204" fill="white"/>
<path fill-rule="evenodd" clip-rule="evenodd" d="M26.6565 1.57991L26.779 1.52832L32.9279 12.0366L32.799 12.0882" fill="white"/>
<path fill-rule="evenodd" clip-rule="evenodd" d="M26.7373 1.54446L26.8631 1.49609L33.0088 12.0076L32.8862 12.056" fill="white"/>
<path fill-rule="evenodd" clip-rule="evenodd" d="M26.821 1.51223L26.9436 1.46387L33.0893 11.9754L32.9667 12.0205" fill="white"/>
<path fill-rule="evenodd" clip-rule="evenodd" d="M26.9016 1.48001L27.0241 1.43164L33.1731 11.9399L33.0505 11.9883" fill="white"/>
<path fill-rule="evenodd" clip-rule="evenodd" d="M26.9854 1.44456L27.1079 1.39941L33.2536 11.9077L33.131 11.9561" fill="white"/>
<path fill-rule="evenodd" clip-rule="evenodd" d="M27.0659 1.41548L27.1884 1.36389L33.3374 11.8754L33.2148 11.927" fill="white"/>
<path fill-rule="evenodd" clip-rule="evenodd" d="M27.1497 1.38326L27.2722 1.33167L33.4179 11.8464L33.2954 11.8916" fill="white"/>
<path fill-rule="evenodd" clip-rule="evenodd" d="M27.2302 1.35098L27.3528 1.30261L33.4985 11.8109L33.3759 11.8593" fill="white"/>
<path fill-rule="evenodd" clip-rule="evenodd" d="M27.311 1.31553L27.44 1.27039L33.5825 11.7787L33.46 11.8271" fill="white"/>
<path fill-rule="evenodd" clip-rule="evenodd" d="M27.395 1.28323L27.5208 1.23486L33.6632 11.7464L33.5407 11.7948" fill="white"/>
<path fill-rule="evenodd" clip-rule="evenodd" d="M27.4788 1.251L27.6013 1.20264L33.7502 11.7109L33.6245 11.7625" fill="white"/>
<path fill-rule="evenodd" clip-rule="evenodd" d="M27.5625 1.222L27.685 1.17041L33.8307 11.6819L33.705 11.7303" fill="white"/>
<path fill-rule="evenodd" clip-rule="evenodd" d="M27.6431 1.1865L27.7656 1.14136L33.9145 11.6497L33.7855 11.698" fill="white"/>
<path fill-rule="evenodd" clip-rule="evenodd" d="M27.7268 1.15432L27.8493 1.10596L33.995 11.6175L33.8725 11.6659" fill="white"/>
<path fill-rule="evenodd" clip-rule="evenodd" d="M27.8074 1.1221L27.9299 1.07373L34.0756 11.582L33.9531 11.6304" fill="white"/>
<path fill-rule="evenodd" clip-rule="evenodd" d="M27.8882 1.08987L28.0139 1.0415L34.1596 11.5498L34.0371 11.5982" fill="white"/>
<path fill-rule="evenodd" clip-rule="evenodd" d="M27.9722 1.05752L28.0947 1.00916L34.2404 11.5175L34.1179 11.5691" fill="white"/>
<path fill-rule="evenodd" clip-rule="evenodd" d="M28.0527 1.02531L30.3066 0.135376L36.4523 10.6437L34.2017 11.5368" fill="white"/>
</g>
<path fill-rule="evenodd" clip-rule="evenodd" d="M12.9003 24.312L18.0207 24.3668C21.1129 24.3991 24.8338 22.0679 25.7141 19.5335L26.3654 17.7504L19.1299 17.6698C16.3182 17.6375 10.2402 18.937 8.90854 22.7708L7.73486 25.9726C8.95691 24.857 11.0979 24.2862 12.9036 24.3056L12.9003 24.312Z" fill="white"/>
<mask id="mask1_134_26" style="mask-type:luminance" maskUnits="userSpaceOnUse" x="7" y="17" width="20" height="9">
<path d="M12.8999 24.3122L18.0202 24.367C21.1124 24.3992 24.8333 22.068 25.7136 19.5336L26.3649 17.7505L19.1294 17.6699C16.3177 17.6377 10.2397 18.9371 8.90805 22.7709L7.73438 25.9727C8.95642 24.8571 11.0974 24.2864 12.9031 24.3057L12.8999 24.3122Z" fill="white"/>
</mask>
<g mask="url(#mask1_134_26)">
<path fill-rule="evenodd" clip-rule="evenodd" d="M11.8196 30.8738L11.8422 30.8932L28.1286 19.8722L28.1125 19.8496" fill="white"/>
<path fill-rule="evenodd" clip-rule="evenodd" d="M11.8646 30.9222L11.7937 30.8416L28.0866 19.8174L28.1543 19.898" fill="white"/>
<path fill-rule="evenodd" clip-rule="evenodd" d="M11.8165 30.8674L11.7488 30.7868L28.0384 19.7626L28.1094 19.8464" fill="white"/>
<path fill-rule="evenodd" clip-rule="evenodd" d="M11.7746 30.8126L11.7036 30.7288L27.9965 19.7078L28.0642 19.7916" fill="white"/>
<path fill-rule="evenodd" clip-rule="evenodd" d="M11.7262 30.761L11.6584 30.6772L27.9481 19.653L28.0158 19.7336" fill="white"/>
<path fill-rule="evenodd" clip-rule="evenodd" d="M11.681 30.7029L11.6133 30.6223L27.9029 19.6013L27.9706 19.6819" fill="white"/>
<path fill-rule="evenodd" clip-rule="evenodd" d="M11.6359 30.6482L11.5649 30.5643L27.8578 19.5433L27.9255 19.6272" fill="white"/>
<path fill-rule="evenodd" clip-rule="evenodd" d="M11.5874 30.5964L11.5229 30.5126L27.8094 19.4884L27.8771 19.569" fill="white"/>
<path fill-rule="evenodd" clip-rule="evenodd" d="M11.5453 30.5385L11.4744 30.4579L27.764 19.4369L27.835 19.5175" fill="white"/>
<path fill-rule="evenodd" clip-rule="evenodd" d="M11.4971 30.4836L11.4326 30.4062L27.719 19.3788L27.7868 19.4626" fill="white"/>
<path fill-rule="evenodd" clip-rule="evenodd" d="M11.4522 30.4321L11.3845 30.3483L27.6742 19.3273L27.7451 19.4047" fill="white"/>
<path fill-rule="evenodd" clip-rule="evenodd" d="M11.4069 30.3741L11.3359 30.2934L27.6288 19.2725L27.6965 19.3531" fill="white"/>
<path fill-rule="evenodd" clip-rule="evenodd" d="M11.3617 30.3224L11.2939 30.2418L27.5836 19.2144L27.6513 19.2982" fill="white"/>
<path fill-rule="evenodd" clip-rule="evenodd" d="M11.3165 30.2677L11.2456 30.1838L27.5353 19.1628L27.6062 19.2467" fill="white"/>
<path fill-rule="evenodd" clip-rule="evenodd" d="M11.2713 30.2096L11.2036 30.129L27.4933 19.108L27.5578 19.1886" fill="white"/>
<path fill-rule="evenodd" clip-rule="evenodd" d="M11.2232 30.158L11.1555 30.0774L27.4452 19.0499L27.5161 19.1338" fill="white"/>
<path fill-rule="evenodd" clip-rule="evenodd" d="M11.181 30.1031L11.1101 30.0193L27.403 18.9983L27.4675 19.0821" fill="white"/>
<path fill-rule="evenodd" clip-rule="evenodd" d="M11.1329 30.0484L11.0652 29.9646L27.3548 18.9436L27.4225 19.0242" fill="white"/>
<path fill-rule="evenodd" clip-rule="evenodd" d="M11.0845 29.9935L11.02 29.9129L27.3064 18.8887L27.3774 18.9693" fill="white"/>
<path fill-rule="evenodd" clip-rule="evenodd" d="M11.0426 29.9387L10.9717 29.8548L27.2646 18.8339L27.3323 18.9177" fill="white"/>
<path fill-rule="evenodd" clip-rule="evenodd" d="M10.9942 29.8871L10.9297 29.8033L27.2161 18.7791L27.287 18.8597" fill="white"/>
<path fill-rule="evenodd" clip-rule="evenodd" d="M10.9523 29.8291L10.8813 29.7485L27.1742 18.7275L27.2419 18.8081" fill="white"/>
<path fill-rule="evenodd" clip-rule="evenodd" d="M10.9039 29.7743L10.8362 29.6936L27.1258 18.6694L27.1935 18.7533" fill="white"/>
<path fill-rule="evenodd" clip-rule="evenodd" d="M10.859 29.7227L10.7913 29.6388L27.0809 18.6146L27.1518 18.6952" fill="white"/>
<path fill-rule="evenodd" clip-rule="evenodd" d="M10.8136 29.6647L10.7427 29.5841L27.0355 18.5631L27.1033 18.6437" fill="white"/>
<path fill-rule="evenodd" clip-rule="evenodd" d="M10.7684 29.6098L10.7007 29.5292L26.9903 18.505L27.0548 18.5888" fill="white"/>
<path fill-rule="evenodd" clip-rule="evenodd" d="M10.7233 29.5582L10.6523 29.4744L26.942 18.4502L27.0129 18.534" fill="white"/>
<path fill-rule="evenodd" clip-rule="evenodd" d="M10.6781 29.5002L10.6104 29.4195L26.9 18.3986L26.9645 18.4792" fill="white"/>
<path fill-rule="evenodd" clip-rule="evenodd" d="M10.63 29.4454L10.5623 29.368L26.8519 18.3406L26.9228 18.4244" fill="white"/>
<path fill-rule="evenodd" clip-rule="evenodd" d="M10.5846 29.3938L10.5168 29.3099L26.8065 18.2889L26.8742 18.3696" fill="white"/>
<path fill-rule="evenodd" clip-rule="evenodd" d="M10.5396 29.339L10.4719 29.2551L26.7616 18.2341L26.8293 18.3147" fill="white"/>
<path fill-rule="evenodd" clip-rule="evenodd" d="M10.4942 29.2841L10.4265 29.2035L26.7129 18.1793L26.7839 18.2599" fill="white"/>
<path fill-rule="evenodd" clip-rule="evenodd" d="M10.4493 29.2293L10.3816 29.1455L26.6712 18.1245L26.739 18.2083" fill="white"/>
<path fill-rule="evenodd" clip-rule="evenodd" d="M10.401 29.1745L10.3333 29.0907L26.6229 18.0697L26.6938 18.1503" fill="white"/>
<path fill-rule="evenodd" clip-rule="evenodd" d="M10.359 29.1197L10.2881 29.0391L26.581 18.0149L26.6487 18.0955" fill="white"/>
<path fill-rule="evenodd" clip-rule="evenodd" d="M10.3106 29.0649L10.2429 28.9843L26.5326 17.9601L26.6003 18.0439" fill="white"/>
<path fill-rule="evenodd" clip-rule="evenodd" d="M10.2684 29.0101L10.1975 28.9263L26.4872 17.9053L26.5549 17.9859" fill="white"/>
<path fill-rule="evenodd" clip-rule="evenodd" d="M10.2204 28.9553L10.1494 28.8747L26.4423 17.8505L26.51 17.9311" fill="white"/>
<path fill-rule="evenodd" clip-rule="evenodd" d="M10.1754 28.9005L10.1077 28.8199L26.3973 17.7957L26.4618 17.8795" fill="white"/>
<path fill-rule="evenodd" clip-rule="evenodd" d="M10.13 28.8489L10.0591 28.7651L26.352 17.7408L26.4197 17.8247" fill="white"/>
<path fill-rule="evenodd" clip-rule="evenodd" d="M10.0816 28.7908L10.0171 28.7102L26.3035 17.6892L26.3712 17.7698" fill="white"/>
<path fill-rule="evenodd" clip-rule="evenodd" d="M10.0365 28.736L9.96875 28.6554L26.2584 17.6312L26.3293 17.7151" fill="white"/>
<path fill-rule="evenodd" clip-rule="evenodd" d="M9.99135 28.6845L9.92041 28.6006L26.2133 17.5764L26.281 17.6603" fill="white"/>
<path fill-rule="evenodd" clip-rule="evenodd" d="M9.94637 28.6264L9.87866 28.5458L26.1683 17.5248L26.2392 17.6054" fill="white"/>
<path fill-rule="evenodd" clip-rule="evenodd" d="M9.90101 28.5716L9.83008 28.491L26.1197 17.47L26.1907 17.5506" fill="white"/>
<path fill-rule="evenodd" clip-rule="evenodd" d="M9.85604 28.52L9.78833 28.4362L26.078 17.412L26.1425 17.4958" fill="white"/>
<path fill-rule="evenodd" clip-rule="evenodd" d="M9.80746 28.4652L9.73975 28.3813L26.0294 17.3604L26.1003 17.441" fill="white"/>
<path fill-rule="evenodd" clip-rule="evenodd" d="M9.76576 28.4071L9.69482 28.3298L25.9877 17.3055L26.0522 17.3862" fill="white"/>
<path fill-rule="evenodd" clip-rule="evenodd" d="M9.71737 28.3556L9.64966 28.2717L25.9393 17.2507L26.007 17.3313" fill="white"/>
<path fill-rule="evenodd" clip-rule="evenodd" d="M9.66898 28.3007L9.60449 28.2169L25.8909 17.1959L25.9619 17.2765" fill="white"/>
<path fill-rule="evenodd" clip-rule="evenodd" d="M9.62704 28.2459L9.55933 28.1653L25.849 17.1411L25.9167 17.2217" fill="white"/>
<path fill-rule="evenodd" clip-rule="evenodd" d="M9.57889 28.1911L9.5144 28.1105L25.8008 17.0863L25.8718 17.1701" fill="white"/>
<path fill-rule="evenodd" clip-rule="evenodd" d="M9.53676 28.1363L9.46582 28.0525L25.7587 17.0315L25.8264 17.1121" fill="white"/>
<path fill-rule="evenodd" clip-rule="evenodd" d="M9.48861 28.0815L9.4209 28.0009L25.7105 16.9767L25.7783 17.0573" fill="white"/>
<path fill-rule="evenodd" clip-rule="evenodd" d="M9.44642 28.0267L9.37549 27.9461L25.6651 16.9219L25.7361 17.0057" fill="white"/>
<path fill-rule="evenodd" clip-rule="evenodd" d="M9.39833 27.9719L9.32739 27.8881L25.6203 16.8671L25.688 16.9509" fill="white"/>
<path fill-rule="evenodd" clip-rule="evenodd" d="M9.35311 27.9171L9.2854 27.8365L25.5751 16.8123L25.6395 16.8929" fill="white"/>
<path fill-rule="evenodd" clip-rule="evenodd" d="M9.30775 27.8623L9.23682 27.7817L25.5297 16.7574L25.5974 16.8413" fill="white"/>
<path fill-rule="evenodd" clip-rule="evenodd" d="M9.26278 27.8106L9.19507 27.7267L25.4847 16.7025L25.5492 16.7863" fill="white"/>
<path fill-rule="evenodd" clip-rule="evenodd" d="M9.2142 27.7558L9.14648 27.672L25.4361 16.651L25.5071 16.7316" fill="white"/>
<path fill-rule="evenodd" clip-rule="evenodd" d="M9.16928 27.6978L9.10156 27.6172L25.3912 16.5962L25.4589 16.6768" fill="white"/>
<path fill-rule="evenodd" clip-rule="evenodd" d="M9.12386 27.6461L9.05615 27.5623L25.3458 16.5381L25.4167 16.6219" fill="white"/>
<path fill-rule="evenodd" clip-rule="evenodd" d="M9.07894 27.5914L9.01123 27.5076L25.2977 16.4866L25.3686 16.5672" fill="white"/>
<path fill-rule="evenodd" clip-rule="evenodd" d="M9.03378 27.5334L8.96606 27.4527L25.2557 16.4318L25.3234 16.5124" fill="white"/>
<path fill-rule="evenodd" clip-rule="evenodd" d="M8.98544 27.4817L8.91772 27.4011L25.2074 16.3737L25.2783 16.4575" fill="white"/>
<path fill-rule="evenodd" clip-rule="evenodd" d="M8.9435 27.427L8.87256 27.3431L25.1654 16.3221L25.2331 16.4028" fill="white"/>
<path fill-rule="evenodd" clip-rule="evenodd" d="M8.89486 27.3689L8.82715 27.2915L25.1168 16.2673L25.1845 16.3479" fill="white"/>
<path fill-rule="evenodd" clip-rule="evenodd" d="M8.85316 27.3172L8.78223 27.2366L25.0719 16.2124L25.1396 16.293" fill="white"/>
<path fill-rule="evenodd" clip-rule="evenodd" d="M8.80502 27.2625L8.7373 27.1787L25.027 16.1577L25.0947 16.2415" fill="white"/>
<path fill-rule="evenodd" clip-rule="evenodd" d="M8.75961 27.2076L8.69189 27.127L24.9815 16.1028L25.0493 16.1834" fill="white"/>
<path fill-rule="evenodd" clip-rule="evenodd" d="M8.71449 27.1529L8.64355 27.0723L24.9364 16.0481L25.0041 16.1319" fill="white"/>
<path fill-rule="evenodd" clip-rule="evenodd" d="M8.66629 27.098L8.60181 27.0141L24.8882 15.9932L24.9559 16.077" fill="white"/>
<path fill-rule="evenodd" clip-rule="evenodd" d="M8.62416 27.0464L8.55322 26.9626L24.8429 15.9384L24.9138 16.019" fill="white"/>
<path fill-rule="evenodd" clip-rule="evenodd" d="M8.57582 26.9884L8.50488 26.9078L24.7978 15.8868L24.8655 15.9675" fill="white"/>
<path fill-rule="evenodd" clip-rule="evenodd" d="M8.5306 26.9336L8.46289 26.8497L24.7525 15.8287L24.8235 15.9126" fill="white"/>
<path fill-rule="evenodd" clip-rule="evenodd" d="M8.48573 26.882L8.41479 26.7981L24.7044 15.7739L24.7754 15.8545" fill="white"/>
<path fill-rule="evenodd" clip-rule="evenodd" d="M8.44052 26.824L8.3728 26.7434L24.6625 15.7224L24.7302 15.803" fill="white"/>
<path fill-rule="evenodd" clip-rule="evenodd" d="M8.39218 26.7724L8.32446 26.6917L24.6141 15.6643L24.685 15.7481" fill="white"/>
<path fill-rule="evenodd" clip-rule="evenodd" d="M8.35023 26.7175L8.2793 26.6337L24.5722 15.6127L24.6367 15.6901" fill="white"/>
<path fill-rule="evenodd" clip-rule="evenodd" d="M8.3016 26.6596L8.23389 26.579L24.5235 15.558L24.5945 15.6386" fill="white"/>
<path fill-rule="evenodd" clip-rule="evenodd" d="M8.25668 26.6079L8.18896 26.5273L24.4754 15.4999L24.5463 15.5837" fill="white"/>
<path fill-rule="evenodd" clip-rule="evenodd" d="M8.21175 26.5531L8.14404 26.4692L24.4337 15.4482L24.5014 15.5321" fill="white"/>
<path fill-rule="evenodd" clip-rule="evenodd" d="M8.16312 26.495L8.09863 26.4144L24.3851 15.3934L24.456 15.474" fill="white"/>
<path fill-rule="evenodd" clip-rule="evenodd" d="M8.12147 26.4435L8.05054 26.3629L24.3434 15.3354L24.4111 15.4193" fill="white"/>
<path fill-rule="evenodd" clip-rule="evenodd" d="M8.07284 26.3886L8.00513 26.3048L24.2948 15.2838L24.3625 15.3676" fill="white"/>
<path fill-rule="evenodd" clip-rule="evenodd" d="M8.0309 26.337L7.95996 26.2532L24.2496 15.229L24.3205 15.3096" fill="white"/>
<path fill-rule="evenodd" clip-rule="evenodd" d="M7.98256 26.2791L7.91162 26.1985L24.2045 15.1775L24.2722 15.2549" fill="white"/>
<path fill-rule="evenodd" clip-rule="evenodd" d="M7.93734 26.2242L7.86963 26.1404L24.1593 15.1194L24.227 15.2032" fill="white"/>
<path fill-rule="evenodd" clip-rule="evenodd" d="M7.89247 26.1726L7.82153 26.0888L24.1144 15.0646L24.1821 15.1452" fill="white"/>
<path fill-rule="evenodd" clip-rule="evenodd" d="M7.84701 26.1145L7.7793 26.0339L24.0689 15.0129L24.1334 15.0935" fill="white"/>
<path fill-rule="evenodd" clip-rule="evenodd" d="M7.80214 26.0598L7.7312 25.9792L24.0209 14.955L24.0918 15.0388" fill="white"/>
<path fill-rule="evenodd" clip-rule="evenodd" d="M7.7537 26.0082L7.68921 25.9244L23.9756 14.9001L24.0433 14.9808" fill="white"/>
<path fill-rule="evenodd" clip-rule="evenodd" d="M7.70858 25.9501L7.64087 25.8695L23.9305 14.8485L24.0015 14.9291" fill="white"/>
<path fill-rule="evenodd" clip-rule="evenodd" d="M7.66342 25.8953L7.5957 25.818L23.8821 14.7905L23.9531 14.8744" fill="white"/>
<path fill-rule="evenodd" clip-rule="evenodd" d="M7.618 25.8438L7.55029 25.7599L23.8399 14.7357L23.9077 14.8196" fill="white"/>
<path fill-rule="evenodd" clip-rule="evenodd" d="M7.56991 25.7857L7.5022 25.7051L23.7918 14.6841L23.8628 14.7647" fill="white"/>
<path fill-rule="evenodd" clip-rule="evenodd" d="M7.52772 25.7341L7.45679 25.6535L23.7497 14.6261L23.8174 14.7099" fill="white"/>
<path fill-rule="evenodd" clip-rule="evenodd" d="M7.47958 25.6793L7.41187 25.5954L23.7015 14.5745L23.7725 14.6583" fill="white"/>
<path fill-rule="evenodd" clip-rule="evenodd" d="M7.43788 25.6245L7.36694 25.5406L23.6598 14.5197L23.7243 14.6003" fill="white"/>
<path fill-rule="evenodd" clip-rule="evenodd" d="M7.38925 25.5697L7.32153 25.4891L23.6112 14.4648L23.6789 14.5455" fill="white"/>
<path fill-rule="evenodd" clip-rule="evenodd" d="M7.34408 25.5149L7.27637 25.431L23.566 14.41L23.6337 14.4939" fill="white"/>
<path fill-rule="evenodd" clip-rule="evenodd" d="M7.29896 25.46L7.22803 25.3762L23.5209 14.3552L23.5886 14.4358" fill="white"/>
<path fill-rule="evenodd" clip-rule="evenodd" d="M7.25052 25.4052L7.18604 25.3246L23.4725 14.3004L23.5402 14.381" fill="white"/>
<path fill-rule="evenodd" clip-rule="evenodd" d="M7.20888 25.3504L7.13794 25.2666L23.4276 14.2456L23.4985 14.3294" fill="white"/>
<path fill-rule="evenodd" clip-rule="evenodd" d="M7.16043 25.2956L7.09595 25.215L23.3824 14.1908L23.4501 14.2714" fill="white"/>
<path fill-rule="evenodd" clip-rule="evenodd" d="M7.11532 25.2408L7.04761 25.1601L23.3373 14.1392L23.4082 14.2165" fill="white"/>
<path fill-rule="evenodd" clip-rule="evenodd" d="M7.06996 25.186L6.99902 25.1054L23.2919 14.0812L23.3596 14.165" fill="white"/>
<path fill-rule="evenodd" clip-rule="evenodd" d="M7.02499 25.1344L6.95728 25.0506L23.2469 14.0264L23.3146 14.1102" fill="white"/>
<path fill-rule="evenodd" clip-rule="evenodd" d="M6.97987 25.0763L6.90894 24.9957L23.1986 13.9747L23.2695 14.0553" fill="white"/>
<path fill-rule="evenodd" clip-rule="evenodd" d="M6.9349 25.0214L6.86719 24.9408L23.1568 13.9166L23.2213 14.0005" fill="white"/>
<path fill-rule="evenodd" clip-rule="evenodd" d="M6.88632 24.97L6.8186 24.8861L23.1082 13.8619L23.1792 13.9458" fill="white"/>
<path fill-rule="evenodd" clip-rule="evenodd" d="M6.84139 24.9119L6.77368 24.8313L23.0601 13.8103L23.131 13.8909" fill="white"/>
<path fill-rule="evenodd" clip-rule="evenodd" d="M6.79598 24.8571L6.72827 24.7765L23.0179 13.7523L23.0856 13.8362" fill="white"/>
<path fill-rule="evenodd" clip-rule="evenodd" d="M6.74759 24.8056L6.68311 24.7217L22.9695 13.6975L23.0405 13.7813" fill="white"/>
<path fill-rule="evenodd" clip-rule="evenodd" d="M6.7057 24.7507L6.63477 24.6669L22.9276 13.6459L22.9953 13.7265" fill="white"/>
<path fill-rule="evenodd" clip-rule="evenodd" d="M6.65731 24.6959L6.5896 24.6153L22.8792 13.5911L22.9502 13.6717" fill="white"/>
<path fill-rule="evenodd" clip-rule="evenodd" d="M6.61561 24.6411L6.54468 24.5572L22.8376 13.5363L22.9053 13.6201" fill="white"/>
<path fill-rule="evenodd" clip-rule="evenodd" d="M6.56698 24.5863L6.49927 24.5024L22.7889 13.4814L22.8566 13.5621" fill="white"/>
<path fill-rule="evenodd" clip-rule="evenodd" d="M6.52206 24.5315L6.45435 24.4508L22.744 13.4266L22.8117 13.5072" fill="white"/>
<path fill-rule="evenodd" clip-rule="evenodd" d="M6.4767 24.4766L6.40576 24.396L22.6986 13.3718L22.7663 13.4557" fill="white"/>
<path fill-rule="evenodd" clip-rule="evenodd" d="M6.43173 24.4217L6.36401 24.3379L22.6537 13.3169L22.7182 13.3975" fill="white"/>
<path fill-rule="evenodd" clip-rule="evenodd" d="M6.38637 24.367L6.31543 24.2864L22.6051 13.2622L22.676 13.3428" fill="white"/>
<path fill-rule="evenodd" clip-rule="evenodd" d="M6.33793 24.3121L6.27344 24.2315L22.5599 13.2073L22.6276 13.2911" fill="white"/>
<path fill-rule="evenodd" clip-rule="evenodd" d="M6.29305 24.2573L6.22534 24.1767L22.515 13.1525L22.5859 13.2363" fill="white"/>
<path fill-rule="evenodd" clip-rule="evenodd" d="M6.24764 24.2025L6.17993 24.1219L22.4696 13.101L22.5373 13.1783" fill="white"/>
<path fill-rule="evenodd" clip-rule="evenodd" d="M6.20272 24.1477L6.13501 24.0671L22.4247 13.0428L22.4924 13.1267" fill="white"/>
<path fill-rule="evenodd" clip-rule="evenodd" d="M6.15414 24.0961L6.08643 24.0122L22.3761 12.988L22.447 13.0719" fill="white"/>
<path fill-rule="evenodd" clip-rule="evenodd" d="M6.11239 24.0413L6.04468 23.9575L22.3343 12.9365L22.402 13.0171" fill="white"/>
<path fill-rule="evenodd" clip-rule="evenodd" d="M6.06405 23.9833L5.99634 23.9027L22.286 12.8817L22.3569 12.9623" fill="white"/>
<path fill-rule="evenodd" clip-rule="evenodd" d="M6.02211 23.9317L5.95117 23.8478L22.244 12.8236L22.3085 12.9074" fill="white"/>
<path fill-rule="evenodd" clip-rule="evenodd" d="M5.97372 23.8769L5.90601 23.7931L22.1957 12.7721L22.2634 12.8527" fill="white"/>
<path fill-rule="evenodd" clip-rule="evenodd" d="M5.93202 23.8188L5.86108 23.7414L22.1507 12.7172L22.2184 12.7978" fill="white"/>
<path fill-rule="evenodd" clip-rule="evenodd" d="M5.88344 23.7672L5.8125 23.6866L22.1054 12.6592L22.1731 12.743" fill="white"/>
<path fill-rule="evenodd" clip-rule="evenodd" d="M5.83524 23.7124L5.77075 23.6285L22.0572 12.6075L22.1249 12.6882" fill="white"/>
<path fill-rule="evenodd" clip-rule="evenodd" d="M5.7931 23.6576L5.72217 23.5769L22.015 12.5527L22.0828 12.6333" fill="white"/>
<path fill-rule="evenodd" clip-rule="evenodd" d="M5.74491 23.6027L5.68042 23.5221L21.9668 12.4979L22.0346 12.5818" fill="white"/>
<path fill-rule="evenodd" clip-rule="evenodd" d="M5.69979 23.5479L5.63208 23.4641L21.9217 12.4431L21.9927 12.5269" fill="white"/>
<path fill-rule="evenodd" clip-rule="evenodd" d="M5.65468 23.4931L5.58374 23.4125L21.8766 12.3883L21.9443 12.4689" fill="white"/>
<path fill-rule="evenodd" clip-rule="evenodd" d="M5.60946 23.4383L5.54175 23.3577L21.8314 12.3335L21.9023 12.4173" fill="white"/>
<path fill-rule="evenodd" clip-rule="evenodd" d="M5.5641 23.3835L5.49316 23.2997L21.7828 12.2787L21.8537 12.3625" fill="white"/>
<path fill-rule="evenodd" clip-rule="evenodd" d="M5.51913 23.3319L5.45142 23.2481L21.7411 12.2239L21.8056 12.3045" fill="white"/>
<path fill-rule="evenodd" clip-rule="evenodd" d="M5.47103 23.274L5.40332 23.1933L21.693 12.1724L21.7639 12.253" fill="white"/>
<path fill-rule="evenodd" clip-rule="evenodd" d="M5.42885 23.2191L5.35791 23.1385L21.6508 12.1143L21.7153 12.1981" fill="white"/>
<path fill-rule="evenodd" clip-rule="evenodd" d="M5.38046 23.1674L5.31274 23.0836L21.6024 12.0626L21.6701 12.14" fill="white"/>
<path fill-rule="evenodd" clip-rule="evenodd" d="M5.33207 23.1094L5.26758 23.0288L21.554 12.0078L21.6249 12.0884" fill="white"/>
<path fill-rule="evenodd" clip-rule="evenodd" d="M5.29012 23.0579L5.22241 22.9773L21.5121 11.9498L21.5798 12.0337" fill="white"/>
<path fill-rule="evenodd" clip-rule="evenodd" d="M5.24203 23.003L5.17432 22.9192L21.464 11.8982L21.5349 11.9788" fill="white"/>
<path fill-rule="evenodd" clip-rule="evenodd" d="M5.19984 22.945L5.12891 22.8644L21.4218 11.8434L21.4895 11.924" fill="white"/>
<path fill-rule="evenodd" clip-rule="evenodd" d="M5.1517 22.8934L5.08398 22.8128L21.3736 11.7854L21.4413 11.8692" fill="white"/>
<path fill-rule="evenodd" clip-rule="evenodd" d="M5.10951 22.8386L5.03857 22.7548L21.3282 11.7338L21.3959 11.8176" fill="white"/>
<path fill-rule="evenodd" clip-rule="evenodd" d="M5.06142 22.7806L4.99048 22.6999L21.2834 11.679L21.3511 11.7596" fill="white"/>
<path fill-rule="evenodd" clip-rule="evenodd" d="M5.0162 22.729L4.94849 22.6484L21.2381 11.621L21.3026 11.7048" fill="white"/>
<path fill-rule="evenodd" clip-rule="evenodd" d="M4.97108 22.6742L4.90015 22.5903L21.193 11.5693L21.2607 11.6532" fill="white"/>
<path fill-rule="evenodd" clip-rule="evenodd" d="M4.92264 22.6226L4.85815 22.5387L21.1446 11.5145L21.2123 11.5951" fill="white"/>
<path fill-rule="evenodd" clip-rule="evenodd" d="M4.87744 22.5646L21.1703 11.5436L4.87744 22.5646Z" fill="white"/>
</g>
<path d="M53.8569 13.9424C53.8569 12.2624 54.4534 10.8244 55.6465 9.63134C56.8395 8.43831 58.2744 7.8418 59.9575 7.8418H80.5195V13.8553H59.8704V18.1341H80.5195V24.1476H59.8704V34.5043H53.8569V13.9424Z" fill="white"/>
<path d="M105.17 7.8418C106.766 7.8418 108.127 8.40607 109.258 9.5346C110.387 10.6631 110.951 12.0271 110.951 13.6231V28.723C110.951 30.3191 110.387 31.6798 109.258 32.8115C108.13 33.9401 106.766 34.5043 105.17 34.5043H90.1119C88.5158 34.5043 87.1551 33.9401 86.0234 32.8115C84.8948 31.683 84.3306 30.3191 84.3306 28.723V13.6231C84.3306 12.0271 84.8948 10.6664 86.0234 9.5346C87.1519 8.40607 88.5158 7.8418 90.1119 7.8418H105.17ZM104.938 28.4908V13.8585H90.3473V28.4908H104.938Z" fill="white"/>
<path d="M139.877 7.8418H146.294V34.5043H140.28V21.0554L134.16 34.5043H127.299L121.179 21.0554V34.5043H115.166V7.8418H121.582L130.73 27.3043L139.877 7.8418Z" fill="white"/>
<path d="M171.218 7.8418C172.815 7.8418 174.175 8.40607 175.307 9.5346C176.435 10.6631 177 12.0271 177 13.6231V28.723C177 30.3191 176.435 31.6798 175.307 32.8115C174.178 33.9401 172.815 34.5043 171.218 34.5043H156.16C154.564 34.5043 153.204 33.9401 152.072 32.8115C150.943 31.683 150.379 30.3191 150.379 28.723V13.6231C150.379 12.0271 150.943 10.6664 152.072 9.5346C153.2 8.40607 154.564 7.8418 156.16 7.8418H171.218ZM170.986 28.4908V13.8585H156.396V28.4908H170.986Z" fill="white"/>
<defs>
<linearGradient id="paint0_linear_134_26" x1="39.989" y1="39.989" x2="2.12488" y2="2.12488" gradientUnits="userSpaceOnUse">
<stop offset="0.2" stop-color="#7500FF"/>
<stop offset="0.52" stop-color="#8600FF"/>
<stop offset="1" stop-color="#A800FF"/>
</linearGradient>
</defs>
</svg>
