<svg width="34" height="34" viewBox="0 0 34 34" fill="none" xmlns="http://www.w3.org/2000/svg">
<g id="Line_black">
<g id="Group">
<path id="Vector" d="M26.3264 0H7.65657C3.43313 0 0 3.434 0 7.667V26.333C0 30.566 3.43313 34 7.66508 34H26.3349C30.5669 34 34 30.566 34 26.333V7.667C33.9915 3.434 30.5584 0 26.3264 0ZM25.893 21.0545C23.5136 23.7915 18.2025 27.132 16.9873 27.6335C15.7806 28.1435 15.959 27.3105 16.0015 27.0215C16.027 26.8515 16.163 26.0525 16.163 26.0525C16.197 25.7635 16.2394 25.313 16.129 25.024C16.0015 24.7095 15.5001 24.548 15.1262 24.463C9.68757 23.7405 5.65108 19.9325 5.65108 15.385C5.65108 10.3105 10.7328 6.188 16.9873 6.188C23.2417 6.188 28.3234 10.3105 28.3234 15.385C28.3234 17.4165 27.5331 19.244 25.893 21.046V21.0545Z" fill="white"/>
<path id="Vector_2" d="M24.5593 12.954H21.3726C21.3131 12.954 21.2621 12.9795 21.2196 13.0135C21.1772 13.056 21.1602 13.107 21.1602 13.1665V18.1135C21.1602 18.173 21.1857 18.224 21.2196 18.2665C21.2621 18.309 21.3131 18.326 21.3726 18.326H24.5593C24.5593 18.326 24.6188 18.326 24.6443 18.309C24.6698 18.3005 24.6953 18.2835 24.7123 18.258C24.7293 18.241 24.7463 18.2155 24.7548 18.19C24.7633 18.1645 24.7718 18.139 24.7718 18.105V17.2975C24.7718 17.238 24.7463 17.187 24.7123 17.1445C24.6698 17.102 24.6188 17.085 24.5593 17.085H22.3924V16.252H24.5593C24.6188 16.252 24.6698 16.2265 24.7123 16.1925C24.7548 16.1585 24.7718 16.099 24.7718 16.0395V15.232C24.7718 15.1725 24.7463 15.1215 24.7123 15.079C24.6698 15.0365 24.6188 15.0195 24.5593 15.0195H22.3924V14.1865H24.5593C24.6188 14.1865 24.6698 14.161 24.7123 14.127C24.7548 14.0845 24.7718 14.0335 24.7718 13.974V13.1665C24.7718 13.107 24.7463 13.056 24.7123 13.0135C24.6783 12.971 24.6188 12.954 24.5593 12.954Z" fill="white"/>
<path id="Vector_3" d="M12.78 17.102H10.6131V13.175C10.6131 13.1155 10.5876 13.0645 10.5536 13.022C10.5111 12.9795 10.4601 12.9625 10.4006 12.9625H9.59331C9.53382 12.9625 9.48284 12.988 9.44035 13.022C9.39786 13.0645 9.38086 13.1155 9.38086 13.175V18.122C9.38086 18.1815 9.40636 18.2325 9.44035 18.275C9.48284 18.3175 9.53382 18.3345 9.59331 18.3345H12.78C12.8395 18.3345 12.8905 18.3175 12.933 18.275C12.9755 18.2325 12.9925 18.1815 12.9925 18.122V17.323C12.9925 17.2635 12.967 17.2125 12.933 17.17C12.8905 17.1275 12.8395 17.1105 12.78 17.1105V17.102Z" fill="white"/>
<path id="Vector_4" d="M14.6936 12.9454H13.8948C13.7728 12.9454 13.6738 13.0444 13.6738 13.1664V18.1049C13.6738 18.227 13.7728 18.3259 13.8948 18.3259H14.6936C14.8156 18.3259 14.9145 18.227 14.9145 18.1049V13.1664C14.9145 13.0444 14.8156 12.9454 14.6936 12.9454Z" fill="white"/>
<path id="Vector_5" d="M20.3194 13.0134C20.3194 13.0134 20.2769 12.9794 20.2514 12.9624C20.226 12.9539 20.2005 12.9454 20.1665 12.9454H19.3592C19.2997 12.9454 19.2487 12.9709 19.2062 13.0049C19.1637 13.0474 19.1467 13.0984 19.1467 13.1579V16.0989L16.8863 13.0389C16.8863 13.0389 16.8778 13.0219 16.8693 13.0134H16.8608V12.9879H16.8268V12.9709H15.9175C15.858 12.9709 15.8071 12.9964 15.7646 13.0304C15.7221 13.0729 15.7051 13.1239 15.7051 13.1834V18.1304C15.7051 18.1899 15.7306 18.2409 15.7646 18.2834C15.8071 18.3259 15.858 18.3429 15.9175 18.3429H16.7248C16.7843 18.3429 16.8353 18.3174 16.8778 18.2834C16.9203 18.2494 16.9373 18.1899 16.9373 18.1304V15.1639L19.2062 18.2239C19.2062 18.2239 19.2402 18.2664 19.2657 18.2834H19.2827V18.3004H19.3252C19.3252 18.3004 19.3592 18.3004 19.3847 18.3004H20.1835C20.243 18.3004 20.2939 18.2749 20.3364 18.2409C20.3789 18.1984 20.3959 18.1474 20.3959 18.0879V13.1579C20.3959 13.1579 20.3959 13.0984 20.3789 13.0729C20.3704 13.0474 20.3534 13.0219 20.3364 13.0049L20.3194 13.0134Z" fill="white"/>
</g>
</g>
</svg>
