<svg width="34" height="34" viewBox="0 0 34 34" fill="none" xmlns="http://www.w3.org/2000/svg">
<g id="Messsage_white">
<g id="Mail_white">
<path id="Vector" d="M28.6875 0H5.3125C2.38 0 0 2.38 0 5.3125V28.6875C0 31.62 2.38 34 5.3125 34H28.6875C31.62 34 34 31.62 34 28.6875V5.3125C34 2.38 31.62 0 28.6875 0ZM25.1855 21.1735C25.1855 22.899 23.783 24.3015 22.0575 24.3015H11.475C9.7495 24.3015 8.34701 22.899 8.34701 21.1735V11.7215C8.34701 9.996 9.7495 8.5935 11.475 8.5935H22.0575C23.783 8.5935 25.1855 9.996 25.1855 11.7215V21.1735Z" fill="white"/>
</g>
<g id="Vector_2">
<path d="M8.5 12.5715C8.5 10.6937 10.0222 9.17151 11.8999 9.17151H22.0997C23.9774 9.17151 25.4996 10.6937 25.4996 12.5715V21.0715C25.4996 22.9493 23.9774 24.4715 22.0997 24.4715H11.8999C10.0222 24.4715 8.5 22.9493 8.5 21.0715V12.5715Z" fill="#F5F5F5"/>
<path d="M11.8999 13.4215L15.1139 15.5642C16.2559 16.3256 17.7437 16.3256 18.8857 15.5642L22.0997 13.4215M11.8999 24.4715H22.0997C23.9774 24.4715 25.4996 22.9493 25.4996 21.0715V12.5715C25.4996 10.6937 23.9774 9.17151 22.0997 9.17151H11.8999C10.0222 9.17151 8.5 10.6937 8.5 12.5715V21.0715C8.5 22.9493 10.0222 24.4715 11.8999 24.4715Z" stroke="black" stroke-width="1.49998" stroke-linecap="round" stroke-linejoin="round"/>
</g>
</g>
</svg>
