<svg width="34" height="34" viewBox="0 0 34 34" fill="none" xmlns="http://www.w3.org/2000/svg">
<g id="Sms_black">
<path id="Vector" d="M28.6875 0H5.3125C2.38 0 0 2.38 0 5.3125V28.6875C0 31.62 2.38 34 5.3125 34H28.6875C31.62 34 34 31.62 34 28.6875V5.3125C34 2.38 31.62 0 28.6875 0ZM17 22.5335H16.864C16.201 24.3355 13.209 25.5 11.3305 25.5C12.8775 23.9105 12.988 22.1935 11.866 21.1225C9.81749 19.839 8.49149 17.8075 8.49149 15.521C8.49149 11.645 12.2995 8.5 16.9915 8.5C21.6835 8.5 25.4915 11.645 25.4915 15.521C25.4915 19.397 21.6835 22.542 16.9915 22.542L17 22.5335Z" fill="white"/>
<path id="Vector_2" d="M17.3399 16.2945L16.2179 13.8295H15.6484V16.9745H16.1754V14.8155L17.1529 16.9745H17.5184L18.4959 14.8155V16.9745H19.0229V13.8295H18.4619L17.3399 16.2945Z" fill="white"/>
<path id="Vector_3" d="M14.5518 15.334C14.4158 15.2745 14.2458 15.2235 14.0333 15.164C13.8718 15.1215 13.7443 15.079 13.6593 15.045C13.5658 15.011 13.4893 14.96 13.4298 14.9005C13.3703 14.841 13.3448 14.756 13.3448 14.6625C13.3448 14.518 13.3958 14.416 13.4893 14.3395C13.5828 14.263 13.7103 14.229 13.8548 14.229C14.0248 14.229 14.1523 14.2715 14.2543 14.348C14.3563 14.433 14.4073 14.5265 14.4243 14.6455H15.0023C14.9768 14.382 14.8663 14.1695 14.6708 14.025C14.4753 13.872 14.2203 13.7955 13.9143 13.7955C13.6933 13.7955 13.5063 13.8295 13.3363 13.906C13.1663 13.9825 13.0388 14.0845 12.9453 14.2205C12.8518 14.3565 12.8093 14.518 12.8093 14.6965C12.8093 14.892 12.8518 15.0535 12.9453 15.164C13.0388 15.283 13.1493 15.368 13.2768 15.4275C13.4043 15.4785 13.5828 15.538 13.7868 15.589C13.9568 15.6315 14.0843 15.674 14.1778 15.708C14.2713 15.742 14.3478 15.793 14.4158 15.861C14.4838 15.929 14.5093 16.014 14.5093 16.116C14.5093 16.252 14.4583 16.3625 14.3563 16.4475C14.2543 16.5325 14.1098 16.575 13.9313 16.575C13.7528 16.575 13.6168 16.5325 13.5233 16.4475C13.4298 16.3625 13.3788 16.252 13.3618 16.116H12.8008C12.8008 16.2945 12.8518 16.456 12.9453 16.592C13.0473 16.728 13.1748 16.83 13.3533 16.9065C13.5233 16.983 13.7188 17.017 13.9313 17.017C14.1608 17.017 14.3563 16.9745 14.5178 16.8895C14.6878 16.8045 14.8153 16.6855 14.9003 16.5495C14.9853 16.405 15.0363 16.2605 15.0363 16.099C15.0363 15.9035 14.9853 15.742 14.8918 15.623C14.7983 15.504 14.6878 15.4105 14.5518 15.3595V15.334Z" fill="white"/>
<path id="Vector_4" d="M21.3852 15.334C21.2577 15.2745 21.0792 15.2235 20.8667 15.164C20.7052 15.1215 20.5777 15.079 20.4842 15.045C20.3907 15.011 20.3142 14.96 20.2547 14.9005C20.1952 14.841 20.1697 14.756 20.1697 14.6625C20.1697 14.518 20.2207 14.416 20.3142 14.3395C20.4077 14.263 20.5352 14.229 20.6797 14.229C20.8497 14.229 20.9772 14.2715 21.0792 14.348C21.1812 14.433 21.2322 14.5265 21.2492 14.6455H21.8272C21.8102 14.382 21.6997 14.1695 21.4957 14.025C21.3002 13.872 21.0452 13.7955 20.7392 13.7955C20.5182 13.7955 20.3312 13.8295 20.1612 13.906C19.9912 13.9825 19.8637 14.0845 19.7702 14.2205C19.6767 14.3565 19.6342 14.518 19.6342 14.6965C19.6342 14.892 19.6767 15.0535 19.7702 15.164C19.8637 15.283 19.9742 15.368 20.1017 15.4275C20.2377 15.4785 20.4077 15.538 20.6117 15.589C20.7732 15.6315 20.9092 15.674 20.9942 15.708C21.0877 15.742 21.1727 15.793 21.2322 15.861C21.3002 15.929 21.3257 16.014 21.3257 16.116C21.3257 16.252 21.2747 16.3625 21.1727 16.4475C21.0707 16.5325 20.9262 16.575 20.7477 16.575C20.5692 16.575 20.4332 16.5325 20.3397 16.4475C20.2462 16.3625 20.1867 16.252 20.1782 16.116H19.6172C19.6172 16.2945 19.6682 16.456 19.7617 16.592C19.8637 16.728 19.9997 16.83 20.1697 16.9065C20.3397 16.983 20.5352 17.017 20.7477 17.017C20.9772 17.017 21.1727 16.9745 21.3342 16.8895C21.5042 16.8045 21.6317 16.6855 21.7167 16.5495C21.8102 16.405 21.8527 16.2605 21.8527 16.099C21.8527 15.9035 21.8017 15.742 21.7082 15.623C21.6147 15.504 21.5042 15.4105 21.3682 15.3595L21.3852 15.334Z" fill="white"/>
</g>
</svg>
